# xmcd
#
# Track frame offsets:
#	150
#	15736
#	27819
#	46303
#	68834
#	80617
#	93960
#	108766
#	133517
#	154376
#	168328
#	185739
#	200859
#	216201
#	228123
#
# Disc length: 3315 seconds
#
# Revision: 1
# Processed by: cddbd v1.5.1PL0 Copyright (c) Steve Scherf et al.
# Submitted via: audiograbber 1.83.01
#
DISCID=c70cf10f
DTITLE=Various Artist - Spirit of Soul [CD2)
DYEAR=2003
DGENRE=Soul
TTITLE0=Shirley Bassey - Light my fire
TTITLE1=Syl Johnson - I hear the love chimes
TTITLE2=Esther Phillips - Use me
TTITLE3=The Brothers Johnson - Strawberry letter 23
TTITLE4=Ann Peebles - Troubles, heartaches and sadness
TTITLE5=Arnold Blair - Tryin' to get next to you
TTITLE6=Al Green - You ought to be with me
TTITLE7=Sylvia Striplin - You can't turn me away
TTITLE8=Maze - While I'm alone
TTITLE9=Ann Sexton - You're gonna miss me
TTITLE10=Brief Encounter - Human
TTITLE11=William Devaughn - Be thankful for what you got
TTITLE12=Syl Johnson - I hate I walked away
TTITLE13=Ann Peebles - I'm gonna tear your playhouse down
TTITLE14=Isaac Hayes - Walk on by
EXTD=
EXTT0=
EXTT1=
EXTT2=
EXTT3=
EXTT4=
EXTT5=
EXTT6=
EXTT7=
EXTT8=
EXTT9=
EXTT10=
EXTT11=
EXTT12=
EXTT13=
EXTT14=
PLAYORDER=
